# xmcd
#
# Track frame offsets:
#	150
#	12940
#	25782
#	38550
#	55695
#	69830
#	87627
#	105865
#	118815
#	130877
#	147452
#	160202
#	172145
#	184627
#
# Disc length: 2621 seconds
#
# Revision: 1
# Processed by: cddbd v1.5.1PL0 Copyright (c) Steve Scherf et al.
# Submitted via: audiograbber 1.83.01
#
DISCID=b50a3b0e
DTITLE=Vários - Modas De Viola 3
DYEAR=2004
DGENRE=Sertanejo
TTITLE0=Gilberto and Gilmar - Música Da Saudade
TTITLE1=Trio Parada Dura - Espinho Na Cama
TTITLE2=Pedro Bento and Zé Da Estrada - Boneca Cobiçada
TTITLE3=Chitãozinho and Xororó - Obras De Poetas (Os Passarinhos)
TTITLE4=João Mineiro and Marciano - Ainda Ontem Chorei De Saudade
TTITLE5=Duo Guarujá - Meu Primeiro Amor
TTITLE6=Teodoro and Sampaio Com Ricardo Braga - Paixão Proibida-Outra Vez
TTITLE7=Silvestre and Celestino - Rio De Piracicaba
TTITLE8=Rei Da Mata and Tião Do Gado - Amargurado
TTITLE9=André and Andrade - Berrante Da Saudade
TTITLE10=Gino and Geno - Vim Dizer Adeus
TTITLE11=Tibagi and Miltinho - Dama De Vermelho
TTITLE12=Tonico and Tinoco - Mulher De Carreiro
TTITLE13=Milionário and José Rico - Zé Macaia
EXTD=
EXTT0=
EXTT1=
EXTT2=
EXTT3=
EXTT4=
EXTT5=
EXTT6=
EXTT7=
EXTT8=
EXTT9=
EXTT10=
EXTT11=
EXTT12=
EXTT13=
PLAYORDER=
